# xmcd
#
# Track frame offsets: 
#        150
#        17387
#        34660
#        54820
#        71960
#        85675
#        103575
#        123637
#        141207
#        154617
#        184855
#
# Disc length: 4139 seconds
#
# Revision: 10
# Processed by: cddbd v1.5.2PL0 Copyright (c) Steve Scherf et al.
# Submitted via: ExactAudioCopy v0.99pb4
#
DISCID=8910290b
DTITLE=Alan Jackson - High Mileage
DYEAR=1998
DGENRE=Country
TTITLE0=Right on the Money
TTITLE1=Gone Crazy
TTITLE2=Little Man
TTITLE3=What a Day Yesterday Was
TTITLE4=Hurtin' Comes Easy
TTITLE5=I'll Go on Loving You
TTITLE6=Another Good Reason
TTITLE7=A Woman's Love
TTITLE8=Dancin' All Around It
TTITLE9=Amarillo
TTITLE10=Data Track
EXTD=
EXTT0=
EXTT1=
EXTT2=
EXTT3=
EXTT4=
EXTT5=
EXTT6=
EXTT7=
EXTT8=
EXTT9=
EXTT10=
PLAYORDER=
